<svg xmlns="http://www.w3.org/2000/svg" viewBox="0 0 350 350"><title>logo</title><g id="Warstwa_5" data-name="Warstwa 5"><path d="M87.35,182.48H85.91l-9.13-13.67v13.67h-1.1v-15h1.51l9.06,13.65V167.51h1.1Z"/><path d="M97.48,167.24a7.32,7.32,0,0,1,2.83.54,6.51,6.51,0,0,1,2.23,1.56,7.18,7.18,0,0,1,1.46,2.44,8.82,8.82,0,0,1,.53,3.17,9.17,9.17,0,0,1-.52,3.17,7.3,7.3,0,0,1-1.45,2.47,6.58,6.58,0,0,1-2.23,1.6,7,7,0,0,1-2.85.56,7.05,7.05,0,0,1-2.86-.56,6.52,6.52,0,0,1-2.24-1.6,7.16,7.16,0,0,1-1.45-2.46,10,10,0,0,1,0-6.37,7.33,7.33,0,0,1,1.47-2.42,6.65,6.65,0,0,1,2.24-1.56A7.3,7.3,0,0,1,97.48,167.24Zm0,14.42a6.29,6.29,0,0,0,2.37-.44,5.07,5.07,0,0,0,1.88-1.31A6.11,6.11,0,0,0,103,177.8a8.71,8.71,0,0,0,.43-2.85,8.53,8.53,0,0,0-.44-2.85,6.06,6.06,0,0,0-1.23-2.07,5.27,5.27,0,0,0-1.86-1.27,6.22,6.22,0,0,0-2.35-.43,6.34,6.34,0,0,0-2.38.44,5.2,5.2,0,0,0-1.88,1.28A5.92,5.92,0,0,0,92,172.12a8.45,8.45,0,0,0-.44,2.83A8.71,8.71,0,0,0,92,177.8a6.09,6.09,0,0,0,1.23,2.11,5.11,5.11,0,0,0,1.87,1.31A6.36,6.36,0,0,0,97.46,181.66Z"/><path d="M119.69,182.48h-1.2l-1.49-4a10.7,10.7,0,0,0-.49-1.08,3.76,3.76,0,0,0-.62-.88,2.6,2.6,0,0,0-.81-.59,2.41,2.41,0,0,0-1.07-.22h-5.24v6.75h-1.09v-15h6.74a9.94,9.94,0,0,1,1.82.17,4.64,4.64,0,0,1,1.57.61,3.14,3.14,0,0,1,1.1,1.21,4.1,4.1,0,0,1,.41,2,5.26,5.26,0,0,1-.18,1.4,3.57,3.57,0,0,1-.56,1.16,3.36,3.36,0,0,1-1,.87,4,4,0,0,1-1.36.53,5.66,5.66,0,0,1,.7.63,3.63,3.63,0,0,1,.47.64,6.53,6.53,0,0,1,.36.75c.1.28.22.59.36.95Zm-10.92-7.85H114a9.6,9.6,0,0,0,1.91-.16,3.36,3.36,0,0,0,1.3-.54,2.23,2.23,0,0,0,.76-1,4,4,0,0,0,.25-1.47,2.48,2.48,0,0,0-1-2.21,5.25,5.25,0,0,0-2.92-.67h-5.51Z"/><path d="M133.9,178.28a3.73,3.73,0,0,1-1.38,3.12,6.42,6.42,0,0,1-4,1.08H123v-15h5.42a5.9,5.9,0,0,1,3.45.86,3.09,3.09,0,0,1,1.2,2.72,5.82,5.82,0,0,1-.11,1.08,3.34,3.34,0,0,1-.37,1,3.17,3.17,0,0,1-.75.85,3,3,0,0,1-1.24.54,4.26,4.26,0,0,1,1.69.46,2.94,2.94,0,0,1,1,.88,3,3,0,0,1,.46,1.14A6.44,6.44,0,0,1,133.9,178.28Zm-9.76-4.19h4a5.29,5.29,0,0,0,2.94-.65,2.42,2.42,0,0,0,.94-2.16,2.38,2.38,0,0,0-.88-2,4.67,4.67,0,0,0-2.8-.66h-4.22Zm0,7.3h4.33q4.25,0,4.24-3.11a3.9,3.9,0,0,0-.22-1.39,2.05,2.05,0,0,0-.74-1,3.6,3.6,0,0,0-1.4-.56,10.25,10.25,0,0,0-2.18-.19h-4Z"/><path d="M148,182.48H137.22v-15h10.45v1.09h-9.36v5.54h8.77v1.1h-8.77v6.15H148Z"/><path d="M163.39,182.48h-1.2l-1.49-4a10.7,10.7,0,0,0-.49-1.08,4.08,4.08,0,0,0-.62-.88,2.64,2.64,0,0,0-.82-.59,2.38,2.38,0,0,0-1.07-.22h-5.24v6.75h-1.09v-15h6.74a10,10,0,0,1,1.83.17,4.72,4.72,0,0,1,1.57.61,3.14,3.14,0,0,1,1.1,1.21,4.22,4.22,0,0,1,.41,2,4.88,4.88,0,0,1-.19,1.4,3.38,3.38,0,0,1-.56,1.16,3.32,3.32,0,0,1-1,.87,4,4,0,0,1-1.36.53,5.51,5.51,0,0,1,.69.63,3.69,3.69,0,0,1,.48.64,5.18,5.18,0,0,1,.35.75c.11.28.23.59.36.95Zm-10.93-7.85h5.2a9.49,9.49,0,0,0,1.9-.16,3.4,3.4,0,0,0,1.31-.54,2.31,2.31,0,0,0,.76-1,4,4,0,0,0,.24-1.47,2.48,2.48,0,0,0-1-2.21,5.23,5.23,0,0,0-2.92-.67h-5.51Z"/><path d="M177,168.6h-5.24v13.88h-1.09V168.6h-5.18v-1.09H177Z"/><path d="M195.88,174.88q0,7.6-7.56,7.6h-4.53v-15h4.53q3.78,0,5.67,1.83T195.88,174.88Zm-1.16,0a10.65,10.65,0,0,0-.3-2.64,4.37,4.37,0,0,0-3-3.21,9.89,9.89,0,0,0-3.13-.43h-3.4v12.79h3.4a9.45,9.45,0,0,0,3.11-.44,4.63,4.63,0,0,0,2-1.28,4.82,4.82,0,0,0,1-2A11.41,11.41,0,0,0,194.72,174.88Z"/><path d="M210,182.48H199.16v-15h10.45v1.09h-9.36v5.54H209v1.1h-8.77v6.15H210Z"/><path d="M225.33,182.48h-1.2l-1.5-4a8.83,8.83,0,0,0-.48-1.08,4.46,4.46,0,0,0-.62-.88,2.64,2.64,0,0,0-.82-.59,2.38,2.38,0,0,0-1.07-.22H214.4v6.75h-1.09v-15h6.74a10,10,0,0,1,1.83.17,4.72,4.72,0,0,1,1.57.61,3.14,3.14,0,0,1,1.1,1.21,4.22,4.22,0,0,1,.41,2,4.88,4.88,0,0,1-.19,1.4,3.57,3.57,0,0,1-.56,1.16,3.45,3.45,0,0,1-1,.87,4,4,0,0,1-1.36.53,5.51,5.51,0,0,1,.69.63,3.69,3.69,0,0,1,.48.64,5.18,5.18,0,0,1,.35.75c.11.28.23.59.36.95Zm-10.93-7.85h5.2a9.49,9.49,0,0,0,1.9-.16,3.4,3.4,0,0,0,1.31-.54,2.21,2.21,0,0,0,.75-1,3.76,3.76,0,0,0,.25-1.47,2.48,2.48,0,0,0-1-2.21,5.23,5.23,0,0,0-2.92-.67H214.4Z"/><path d="M230.22,182.48h-1.09v-15h1.09Z"/><path d="M246.11,182.48h-1.44l-9.13-13.67v13.67h-1.09v-15H236L245,181.16V167.51h1.09Z"/><path d="M256.32,182.75a7.31,7.31,0,0,1-2.92-.56,6.56,6.56,0,0,1-2.26-1.57,7.13,7.13,0,0,1-1.46-2.47,9.55,9.55,0,0,1-.51-3.2,9.18,9.18,0,0,1,.52-3.2,7,7,0,0,1,1.46-2.43,6.33,6.33,0,0,1,2.23-1.54,7.45,7.45,0,0,1,2.87-.54,8.47,8.47,0,0,1,2.3.3,6.64,6.64,0,0,1,1.9.88,5.11,5.11,0,0,1,1.38,1.36,4.67,4.67,0,0,1,.75,1.76h-1.17a3,3,0,0,0-.53-1.23,4,4,0,0,0-1.09-1,5.66,5.66,0,0,0-1.55-.7,7.15,7.15,0,0,0-2-.26,6.61,6.61,0,0,0-2.4.42A5.09,5.09,0,0,0,252,170a5.72,5.72,0,0,0-1.23,2.08,8.53,8.53,0,0,0-.44,2.85,8.7,8.7,0,0,0,.44,2.85,5.94,5.94,0,0,0,1.23,2.11,5.07,5.07,0,0,0,1.88,1.31,6.57,6.57,0,0,0,2.43.44,7,7,0,0,0,3.23-.71,6.72,6.72,0,0,0,2.31-2v-2.69h-4.13v-1.1h5.22v7.29h-.63l-.48-2a5.42,5.42,0,0,1-1.15,1,6.26,6.26,0,0,1-1.33.7,7.23,7.23,0,0,1-1.47.39A10.05,10.05,0,0,1,256.32,182.75Z"/><rect x="97.2" y="188" width="5.58" height="30.94"/><rect x="154.35" y="119.65" width="5.58" height="42.13"/><path d="M154.76,188q-.15.39-.33.75l-.08.1V208l-11.53-20h-6.36l17.89,30.94h5.59V188Z"/><path d="M103.34,119.65H97.2v42.13l6,.1a3.18,3.18,0,0,1,.1-.52l-.47,0V129.77l18.76,32.43,6.45.11Z"/><path d="M185.08,125.48h.43q22.1,0,34,11.86a43.48,43.48,0,0,1,12.8,25.52c1.91,0,3.83,0,5.74-.05a48.94,48.94,0,0,0-14.51-29.51q-13.47-13.53-38-13.53h-.43v-.12h-5.59v42.48c1.86.07,3.72.16,5.59.28Z"/><path d="M229.68,188.24a45.12,45.12,0,0,1-9.37,13q-12.1,11.91-34.67,11.91h-.44V187.59l-5.71.16v31.19h5.71v-.12h.44q25,0,38.79-13.53a50.13,50.13,0,0,0,11.57-17,2.54,2.54,0,0,1-.39,0S231.18,188.25,229.68,188.24Z"/></g></svg>