<svg xmlns="http://www.w3.org/2000/svg" viewBox="0 0 350 350"><defs><style>.cls-1,.cls-2{stroke:#000;stroke-miterlimit:10;}.cls-1{stroke-width:0.25px;}.cls-2{stroke-width:2px;}</style></defs><title>logo</title><g id="Warstwa_5" data-name="Warstwa 5"><path d="M84.35,188H82.91l-9.13-13.67V188h-1.1V173h1.51l9.06,13.65V173h1.1Z"/><path d="M94.48,172.74a7.32,7.32,0,0,1,2.83.54,6.51,6.51,0,0,1,2.23,1.56,7.18,7.18,0,0,1,1.46,2.44,8.82,8.82,0,0,1,.53,3.17,9.17,9.17,0,0,1-.52,3.17,7.3,7.3,0,0,1-1.45,2.47,6.58,6.58,0,0,1-2.23,1.6,7,7,0,0,1-2.85.56,7.05,7.05,0,0,1-2.86-.56,6.52,6.52,0,0,1-2.24-1.6,7.16,7.16,0,0,1-1.45-2.46,10,10,0,0,1,0-6.37,7.33,7.33,0,0,1,1.47-2.42,6.65,6.65,0,0,1,2.24-1.56A7.3,7.3,0,0,1,94.48,172.74Zm0,14.42a6.29,6.29,0,0,0,2.37-.44,5.07,5.07,0,0,0,1.88-1.31A6.11,6.11,0,0,0,100,183.3a8.71,8.71,0,0,0,.43-2.85,8.53,8.53,0,0,0-.44-2.85,6.06,6.06,0,0,0-1.23-2.07,5.27,5.27,0,0,0-1.86-1.27,6.22,6.22,0,0,0-2.35-.43,6.34,6.34,0,0,0-2.38.44,5.2,5.2,0,0,0-1.88,1.28A5.92,5.92,0,0,0,89,177.62a8.45,8.45,0,0,0-.44,2.83A8.71,8.71,0,0,0,89,183.3a6.09,6.09,0,0,0,1.23,2.11,5.11,5.11,0,0,0,1.87,1.31A6.36,6.36,0,0,0,94.46,187.16Z"/><path d="M116.69,188h-1.2L114,184a10.7,10.7,0,0,0-.49-1.08,3.76,3.76,0,0,0-.62-.88,2.6,2.6,0,0,0-.81-.59,2.41,2.41,0,0,0-1.07-.22h-5.24V188h-1.09V173h6.74a9.94,9.94,0,0,1,1.82.17,4.64,4.64,0,0,1,1.57.61,3.14,3.14,0,0,1,1.1,1.21,4.1,4.1,0,0,1,.41,2,5.26,5.26,0,0,1-.18,1.4,3.57,3.57,0,0,1-.56,1.16,3.36,3.36,0,0,1-1,.87,4,4,0,0,1-1.36.53,5.66,5.66,0,0,1,.7.63,3.63,3.63,0,0,1,.47.64,6.53,6.53,0,0,1,.36.75c.1.28.22.59.36.95Zm-10.92-7.85H111a9.6,9.6,0,0,0,1.91-.16,3.36,3.36,0,0,0,1.3-.54,2.23,2.23,0,0,0,.76-1,4,4,0,0,0,.25-1.47,2.48,2.48,0,0,0-1-2.21,5.25,5.25,0,0,0-2.92-.67h-5.51Z"/><path d="M130.9,183.78a3.73,3.73,0,0,1-1.38,3.12,6.42,6.42,0,0,1-4,1.08H120V173h5.42a5.9,5.9,0,0,1,3.45.86,3.09,3.09,0,0,1,1.2,2.72,5.82,5.82,0,0,1-.11,1.08,3.34,3.34,0,0,1-.37,1,3.17,3.17,0,0,1-.75.85,3,3,0,0,1-1.24.54,4.26,4.26,0,0,1,1.69.46,2.94,2.94,0,0,1,1,.88,3,3,0,0,1,.46,1.14A6.44,6.44,0,0,1,130.9,183.78Zm-9.76-4.19h4a5.29,5.29,0,0,0,2.94-.65,2.42,2.42,0,0,0,.94-2.16,2.38,2.38,0,0,0-.88-2,4.67,4.67,0,0,0-2.8-.66h-4.22Zm0,7.3h4.33q4.25,0,4.24-3.11a3.9,3.9,0,0,0-.22-1.39,2.05,2.05,0,0,0-.74-1,3.6,3.6,0,0,0-1.4-.56,10.25,10.25,0,0,0-2.18-.19h-4Z"/><path d="M145,188H134.22V173h10.45v1.09h-9.36v5.54h8.77v1.1h-8.77v6.15H145Z"/><path d="M160.39,188h-1.2l-1.49-4a10.7,10.7,0,0,0-.49-1.08,4.08,4.08,0,0,0-.62-.88,2.64,2.64,0,0,0-.82-.59,2.38,2.38,0,0,0-1.07-.22h-5.24V188h-1.09V173h6.74a10,10,0,0,1,1.83.17,4.72,4.72,0,0,1,1.57.61,3.14,3.14,0,0,1,1.1,1.21,4.22,4.22,0,0,1,.41,2,4.88,4.88,0,0,1-.19,1.4,3.38,3.38,0,0,1-.56,1.16,3.32,3.32,0,0,1-1,.87,4,4,0,0,1-1.36.53,5.51,5.51,0,0,1,.69.63,3.69,3.69,0,0,1,.48.64,5.18,5.18,0,0,1,.35.75c.11.28.23.59.36.95Zm-10.93-7.85h5.2a9.49,9.49,0,0,0,1.9-.16,3.4,3.4,0,0,0,1.31-.54,2.31,2.31,0,0,0,.76-1,4,4,0,0,0,.24-1.47,2.48,2.48,0,0,0-1-2.21,5.23,5.23,0,0,0-2.92-.67h-5.51Z"/><path d="M174,174.1h-5.24V188h-1.09V174.1h-5.18V173H174Z"/><path class="cls-1" d="M209.88,180.38q0,7.6-7.56,7.6h-4.53V173h4.53q3.78,0,5.67,1.83T209.88,180.38Zm-1.16,0a10.65,10.65,0,0,0-.3-2.64,4.37,4.37,0,0,0-3-3.21,9.89,9.89,0,0,0-3.13-.43h-3.4v12.79h3.4a9.45,9.45,0,0,0,3.11-.44,4.63,4.63,0,0,0,2-1.28,4.82,4.82,0,0,0,1-2A11.41,11.41,0,0,0,208.72,180.38Z"/><path class="cls-1" d="M224,188H213.16V173h10.45v1.09h-9.36v5.54H223v1.1h-8.77v6.15H224Z"/><path class="cls-1" d="M239.33,188h-1.2l-1.5-4a8.83,8.83,0,0,0-.48-1.08,4.46,4.46,0,0,0-.62-.88,2.64,2.64,0,0,0-.82-.59,2.38,2.38,0,0,0-1.07-.22H228.4V188h-1.09V173h6.74a10,10,0,0,1,1.83.17,4.72,4.72,0,0,1,1.57.61,3.14,3.14,0,0,1,1.1,1.21,4.22,4.22,0,0,1,.41,2,4.88,4.88,0,0,1-.19,1.4,3.57,3.57,0,0,1-.56,1.16,3.45,3.45,0,0,1-1,.87,4,4,0,0,1-1.36.53,5.51,5.51,0,0,1,.69.63,3.69,3.69,0,0,1,.48.64,5.18,5.18,0,0,1,.35.75c.11.28.23.59.36.95Zm-10.93-7.85h5.2a9.49,9.49,0,0,0,1.9-.16,3.4,3.4,0,0,0,1.31-.54,2.21,2.21,0,0,0,.75-1,3.76,3.76,0,0,0,.25-1.47,2.48,2.48,0,0,0-1-2.21,5.23,5.23,0,0,0-2.92-.67H228.4Z"/><path class="cls-1" d="M244.22,188h-1.09V173h1.09Z"/><path class="cls-1" d="M260.11,188h-1.44l-9.13-13.67V188h-1.09V173H250L259,186.66V173h1.09Z"/><path class="cls-1" d="M270.32,188.25a7.31,7.31,0,0,1-2.92-.56,6.56,6.56,0,0,1-2.26-1.57,7.13,7.13,0,0,1-1.46-2.47,9.55,9.55,0,0,1-.51-3.2,9.18,9.18,0,0,1,.52-3.2,7,7,0,0,1,1.46-2.43,6.33,6.33,0,0,1,2.23-1.54,7.45,7.45,0,0,1,2.87-.54,8.47,8.47,0,0,1,2.3.3,6.64,6.64,0,0,1,1.9.88,5.11,5.11,0,0,1,1.38,1.36,4.67,4.67,0,0,1,.75,1.76h-1.17a3,3,0,0,0-.53-1.23,4,4,0,0,0-1.09-1,5.66,5.66,0,0,0-1.55-.7,7.15,7.15,0,0,0-2-.26,6.61,6.61,0,0,0-2.4.42,5.09,5.09,0,0,0-1.88,1.27,5.72,5.72,0,0,0-1.23,2.08,8.53,8.53,0,0,0-.44,2.85,8.7,8.7,0,0,0,.44,2.85,5.94,5.94,0,0,0,1.23,2.11,5.07,5.07,0,0,0,1.88,1.31,6.57,6.57,0,0,0,2.43.44,7,7,0,0,0,3.23-.71,6.72,6.72,0,0,0,2.31-2v-2.69h-4.13v-1.1h5.22V188h-.63l-.48-2a5.42,5.42,0,0,1-1.15,1,6.26,6.26,0,0,1-1.33.7,7.23,7.23,0,0,1-1.47.39A10.05,10.05,0,0,1,270.32,188.25Z"/><path class="cls-2" d="M156,191.58v18.28h4.38V191.37Z"/><rect class="cls-2" x="200.84" y="131.91" width="4.38" height="37.09"/><path class="cls-2" d="M200.84,192.15v9.09l-40-69.33H156v37.17q2.19.1,4.38.18V139.85l40.48,70h4.39V192.15Z"/></g></svg>